# xmcd
#
# Track frame offsets:
#	150
#	17942
#	30572
#	63830
#	81777
#
# Disc length: 1253 seconds
#
# Revision: 0
# Processed by: cddbd v1.5.2PL0 Copyright (c) Steve Scherf et al.
# Submitted via: dBpowerAMP V4.0
#
DISCID=3304e305
DTITLE=Back Soon - If Money Was Trouble
DYEAR=1900
DGENRE=Blues
TTITLE0=Billy Jo
TTITLE1=Smack Right Jack
TTITLE2=If Money Was Trouble
TTITLE3=Daddy Don't Jive
TTITLE4=Southside Shuffle
EXTD=
EXTT0=
EXTT1=
EXTT2=
EXTT3=
EXTT4=
PLAYORDER=
